<mxfile host="Electron" modified="2023-05-29T11:49:39.234Z" agent="Mozilla/5.0 (X11; Linux x86_64) AppleWebKit/537.36 (KHTML, like Gecko) draw.io/21.2.8 Chrome/112.0.5615.165 Electron/24.2.0 Safari/537.36" etag="-jH5MNZ3h0Sj6odyOwYE" version="21.2.8" type="device" pages="2">
  <diagram id="y60R1ftarecfxdk5But6" name="Report structure">
    <mxGraphModel dx="1360" dy="843" grid="1" gridSize="10" guides="1" tooltips="1" connect="1" arrows="1" fold="1" page="1" pageScale="1" pageWidth="850" pageHeight="1100" math="0" shadow="0">
      <root>
        <mxCell id="0" />
        <mxCell id="1" parent="0" />
        <mxCell id="z4sXySyFs1GzIq2ww6pH-1" value="Algorithm theory" style="rounded=1;whiteSpace=wrap;html=1;" parent="1" vertex="1">
          <mxGeometry x="280" y="120" width="120" height="60" as="geometry" />
        </mxCell>
        <mxCell id="z4sXySyFs1GzIq2ww6pH-2" value="Implementation description" style="rounded=1;whiteSpace=wrap;html=1;" parent="1" vertex="1">
          <mxGeometry x="440" y="120" width="120" height="60" as="geometry" />
        </mxCell>
        <mxCell id="z4sXySyFs1GzIq2ww6pH-3" value="Test and verification" style="rounded=1;whiteSpace=wrap;html=1;" parent="1" vertex="1">
          <mxGeometry x="600" y="120" width="120" height="60" as="geometry" />
        </mxCell>
      </root>
    </mxGraphModel>
  </diagram>
  <diagram id="psIAaPbW_4FSM3hO6upb" name="Page-2">
    <mxGraphModel dx="1195" dy="725" grid="1" gridSize="10" guides="1" tooltips="1" connect="1" arrows="1" fold="1" page="1" pageScale="1" pageWidth="850" pageHeight="1100" math="0" shadow="0">
      <root>
        <mxCell id="0" />
        <mxCell id="1" parent="0" />
        <mxCell id="Mzgf7IHqbBzbpNGwl2jC-26" style="edgeStyle=orthogonalEdgeStyle;rounded=0;orthogonalLoop=1;jettySize=auto;html=1;exitX=1;exitY=0.5;exitDx=0;exitDy=0;entryX=0;entryY=0.5;entryDx=0;entryDy=0;fontSize=24;strokeWidth=2;" edge="1" parent="1" source="Mzgf7IHqbBzbpNGwl2jC-27" target="Mzgf7IHqbBzbpNGwl2jC-29">
          <mxGeometry relative="1" as="geometry" />
        </mxCell>
        <mxCell id="Mzgf7IHqbBzbpNGwl2jC-27" value="Camera" style="rounded=1;whiteSpace=wrap;html=1;fontStyle=1;fontSize=24;" vertex="1" parent="1">
          <mxGeometry x="440" y="320" width="120" height="80" as="geometry" />
        </mxCell>
        <mxCell id="Mzgf7IHqbBzbpNGwl2jC-28" style="edgeStyle=orthogonalEdgeStyle;rounded=0;orthogonalLoop=1;jettySize=auto;html=1;exitX=1;exitY=0.5;exitDx=0;exitDy=0;entryX=0;entryY=0.5;entryDx=0;entryDy=0;fontSize=24;strokeWidth=2;" edge="1" parent="1" source="Mzgf7IHqbBzbpNGwl2jC-29" target="Mzgf7IHqbBzbpNGwl2jC-31">
          <mxGeometry relative="1" as="geometry" />
        </mxCell>
        <mxCell id="Mzgf7IHqbBzbpNGwl2jC-29" value="Compression" style="rounded=1;whiteSpace=wrap;html=1;fontStyle=1;fontSize=24;" vertex="1" parent="1">
          <mxGeometry x="600" y="320" width="200" height="80" as="geometry" />
        </mxCell>
        <mxCell id="Mzgf7IHqbBzbpNGwl2jC-30" style="edgeStyle=orthogonalEdgeStyle;rounded=0;orthogonalLoop=1;jettySize=auto;html=1;exitX=1;exitY=0.5;exitDx=0;exitDy=0;entryX=0;entryY=0.5;entryDx=0;entryDy=0;fontSize=24;strokeWidth=2;" edge="1" parent="1" source="Mzgf7IHqbBzbpNGwl2jC-31" target="Mzgf7IHqbBzbpNGwl2jC-32">
          <mxGeometry relative="1" as="geometry" />
        </mxCell>
        <mxCell id="Mzgf7IHqbBzbpNGwl2jC-31" value="Bluetooth&lt;br&gt;module" style="rounded=1;whiteSpace=wrap;html=1;fontStyle=1;fontSize=24;" vertex="1" parent="1">
          <mxGeometry x="840" y="320" width="120" height="80" as="geometry" />
        </mxCell>
        <mxCell id="Mzgf7IHqbBzbpNGwl2jC-32" value="Receiver" style="rounded=1;whiteSpace=wrap;html=1;fontStyle=1;fontSize=24;" vertex="1" parent="1">
          <mxGeometry x="1000" y="320" width="120" height="80" as="geometry" />
        </mxCell>
      </root>
    </mxGraphModel>
  </diagram>
</mxfile>
